<svg width="141" height="31" viewBox="0 0 141 31" fill="none" xmlns="http://www.w3.org/2000/svg">
<path d="M9.39513 11.5464H2.34146L0 15.2569H6.79024L3.89268 20.0153L5.9122 21.3466C7.47682 20.8854 8.11872 21.1831 9.13174 22.0263C10.2363 23.6902 10.1855 24.6 9.13174 26.19C8.18795 26.7988 7.60243 27.0652 6.1171 26.9547C4.38028 26.6537 3.4115 25.9765 1.69759 23.4425L0 26.19C0.978842 28.0504 1.79651 28.6732 3.30735 29.7022C6.4593 30.8885 7.94326 30.6852 10.3317 29.5322C12.5561 28.2293 13.6536 25.8971 13.0244 22.8761C12.1132 20.0497 11.0464 19.32 8.69269 18.7124V18.5425L10.8585 15.2569H16.3024V21.7714H20.1951V15.2569H21.7171L24 11.5464H20.1951V8.09087H16.3024V11.5464H13.2L20.1951 0.5H16.3024L9.39513 11.5464Z" fill="black"/>
<path d="M35.764 16.416L41.56 23.5H37.36L32.264 17.144V23.5H28.652V9.5H32.264V15.66L37.08 9.5H41.392L35.764 16.416ZM54.2792 21.764C52.8606 23.1827 51.1059 23.892 49.0152 23.892C46.9246 23.892 45.1699 23.1827 43.7512 21.764C42.3326 20.3453 41.6232 18.5907 41.6232 16.5C41.6232 14.428 42.3326 12.6827 43.7512 11.264C45.1886 9.82667 46.9432 9.108 49.0152 9.108C51.0872 9.108 52.8419 9.82667 54.2792 11.264C55.7166 12.7013 56.4352 14.4467 56.4352 16.5C56.4352 18.572 55.7166 20.3267 54.2792 21.764ZM46.2992 19.272C47.0272 20 47.9326 20.364 49.0152 20.364C50.0979 20.364 51.0032 20 51.7312 19.272C52.4592 18.544 52.8232 17.62 52.8232 16.5C52.8232 15.38 52.4592 14.456 51.7312 13.728C51.0032 13 50.0979 12.636 49.0152 12.636C47.9326 12.636 47.0272 13 46.2992 13.728C45.5899 14.4747 45.2352 15.3987 45.2352 16.5C45.2352 17.6013 45.5899 18.5253 46.2992 19.272ZM59.5448 9.5H70.6328V23.5H67.0208V12.972H63.1568V17.648C63.1568 21.96 61.1874 23.9107 57.2488 23.5V20.112C57.9954 20.2987 58.5648 20.168 58.9568 19.72C59.3488 19.272 59.5448 18.516 59.5448 17.452V9.5ZM74.8299 9.5H85.9179V23.5H82.3059V12.972H78.4419V17.648C78.4419 21.96 76.4726 23.9107 72.5339 23.5V20.112C73.2806 20.2987 73.8499 20.168 74.2419 19.72C74.6339 19.272 74.8299 18.516 74.8299 17.452V9.5ZM102.799 17.984H92.2431C92.7097 19.7387 94.0257 20.616 96.1911 20.616C97.5724 20.616 98.6177 20.1493 99.3271 19.216L102.239 20.896C100.858 22.8933 98.8231 23.892 96.1351 23.892C93.8204 23.892 91.9631 23.192 90.5631 21.792C89.1631 20.392 88.4631 18.628 88.4631 16.5C88.4631 14.4093 89.1537 12.6547 90.5351 11.236C91.8977 9.81733 93.6711 9.108 95.8551 9.108C97.9271 9.108 99.6164 9.81733 100.923 11.236C102.267 12.6547 102.939 14.4093 102.939 16.5C102.939 16.892 102.892 17.3867 102.799 17.984ZM92.1871 15.184H99.3271C99.1217 14.2693 98.7017 13.5693 98.0671 13.084C97.4511 12.5987 96.7137 12.356 95.8551 12.356C94.8844 12.356 94.0817 12.608 93.4471 13.112C92.8124 13.5973 92.3924 14.288 92.1871 15.184ZM117.514 9.5V20.112H119.362V27.252H115.834V23.5H107.154V27.252H103.626V20.112H105.334C106.136 18.9173 106.538 17.2653 106.538 15.156V9.5H117.514ZM109.198 20.112H113.986V12.748H110.066V15.156C110.066 17.172 109.776 18.824 109.198 20.112ZM135.48 16.416L140.548 23.5H136.488L132.204 17.228V23.5H128.676V17.228L124.392 23.5H120.36L125.4 16.416L120.64 9.5H124.672L128.676 15.576V9.5H132.204V15.576L136.208 9.5H140.268L135.48 16.416Z" fill="black"/>
</svg>
